<svg xmlns="http://www.w3.org/2000/svg" version="1.1" width="40" height="40" viewBox="0 0 40 40" xmlns:xlink="http://www.w3.org/1999/xlink">
  <path d="m11.459 0.749 0.756 -0.001h3.198l3.262 0.001h2.79l3.6 -0.001h0.173l1.196 -0.001q0.73 -0.001 1.461 0.001h0.743c2.569 -0.004 5.168 0.163 7.286 1.794l0.143 0.109c1.732 1.364 2.754 3.482 3.022 5.647l0.013 0.094c0.05 0.418 0.043 0.838 0.044 1.259l0.001 0.267 0.002 0.731 0.002 0.79 0.004 1.547 0.003 1.259 0.007 2.992v0.097l0.001 0.485v0.098l0.001 0.194 0.008 3.024 0.009 3.402 0.005 1.799 0.004 1.533 0.002 0.781c0.011 3.034 -0.319 5.838 -2.525 8.116 -1.214 1.207 -2.779 1.935 -4.45 2.238l-0.122 0.022c-1.122 0.19 -2.251 0.174 -3.386 0.174l-0.768 0.001 -1.5 0.001h-5.069l-3.026 0.001q-1.558 0.002 -3.117 0.001l-1.746 0.001h-2.243c-2.546 0.005 -5.083 -0.156 -7.166 -1.794l-0.134 -0.102a7.68 7.68 0 0 1 -2.12 -2.584l-0.05 -0.098c-0.365 -0.712 -0.591 -1.442 -0.753 -2.225l-0.029 -0.138c-0.152 -0.781 -0.19 -1.568 -0.187 -2.362l-0.001 -0.27v-0.735l-0.001 -0.796 -0.001 -1.557L0.8 24.726v-3.34L0.799 18.344l-0.002 -3.426 -0.001 -1.811v-2.326c-0.005 -2.258 0.181 -4.642 1.602 -6.512l0.09 -0.121c0.254 -0.328 0.534 -0.634 0.821 -0.934l0.078 -0.082C5.522 0.943 8.586 0.743 11.459 0.749" fill="#FEFEFE"/>
  <path d="M11.942 0.767v0.096c-0.076 0.05 -0.076 0.05 -0.189 0.111 -0.586 0.341 -1.107 0.784 -1.596 1.25a7.2 7.2 0 0 1 -0.331 0.294c-0.446 0.389 -0.818 0.858 -1.175 1.328l-0.131 0.171c-2.628 3.41 -3.606 7.95 -3.595 12.176v0.191c0.002 0.927 0.03 1.834 0.158 2.752l0.044 0.346c0.36 2.764 1.206 5.559 2.73 7.912q0.142 0.225 0.274 0.456l0.093 0.159c0.306 0.61 0.115 1.494 -0.084 2.106 -0.244 0.711 -0.629 1.432 -1.178 1.957l-0.057 0.061c0.012 0.102 0.022 0.166 0.096 0.24 1.585 0.106 3.027 -0.209 4.514 -0.72l0.138 -0.048 0.151 -0.059c0.136 -0.037 0.136 -0.037 0.298 0.04q0.09 0.061 0.179 0.124l0.206 0.136 0.109 0.072c1.782 1.146 3.951 1.838 6.015 2.25l0.433 0.089a26.4 26.4 0 0 0 2.442 0.37l0.153 0.018c1.648 0.18 3.379 0.15 5.027 -0.018l0.094 -0.01a27.2 27.2 0 0 0 2.784 -0.422l0.156 -0.033c3.473 -0.738 6.914 -2.237 9.339 -4.906l0.048 -0.096h0.096c0.043 2.854 -0.472 5.492 -2.516 7.602 -1.214 1.207 -2.779 1.935 -4.45 2.238l-0.122 0.022c-1.122 0.19 -2.251 0.174 -3.386 0.174l-0.768 0.001 -1.5 0.001h-5.069L18.348 39.2q-1.558 0.002 -3.117 0.001l-1.746 0.001h-2.243c-2.546 0.007 -5.083 -0.154 -7.166 -1.791l-0.134 -0.102a7.68 7.68 0 0 1 -2.12 -2.584l-0.05 -0.098c-0.365 -0.712 -0.591 -1.442 -0.753 -2.225l-0.029 -0.138c-0.152 -0.781 -0.19 -1.568 -0.187 -2.362l-0.001 -0.27v-0.735l-0.001 -0.796 -0.001 -1.557L0.8 24.726v-3.34L0.799 18.344l-0.002 -3.426 -0.001 -1.811v-2.326c-0.005 -2.258 0.181 -4.642 1.602 -6.512l0.09 -0.121c0.254 -0.328 0.534 -0.634 0.821 -0.934l0.078 -0.082C5.651 0.81 8.917 0.731 11.942 0.767" fill="#0068FE"/>
  <path d="M39.089 29.161h0.096c0.043 2.854 -0.472 5.492 -2.516 7.602 -1.214 1.207 -2.779 1.935 -4.45 2.238l-0.122 0.022c-1.015 0.172 -2.038 0.176 -3.064 0.179l-0.498 0.002q-0.818 0.004 -1.636 0.006l-0.426 0.002 -3.264 0.007h-0.154a634.4 634.4 0 0 0 -2.468 0.01q-1.27 0.006 -2.54 0.008 -0.712 0 -1.424 0.005 -0.605 0.005 -1.21 0.003 -0.309 -0.002 -0.617 0.002 -0.283 0.004 -0.565 0 -0.102 -0.001 -0.204 0.002c-0.285 0.006 -0.507 0.011 -0.729 -0.181a4.8 4.8 0 0 1 -0.299 -0.413 5.6 5.6 0 0 0 -0.178 -0.198l-0.086 -0.092 -0.09 -0.094 -0.098 -0.103c-0.402 -0.422 -0.816 -0.832 -1.23 -1.242l-0.466 -0.463 -0.105 -0.104a9.6 9.6 0 0 1 -0.549 -0.59 4 4 0 0 0 -0.244 -0.254 4.8 4.8 0 0 1 -0.312 -0.336c-0.202 -0.234 -0.422 -0.449 -0.643 -0.666a7.2 7.2 0 0 1 -0.421 -0.446 8.8 8.8 0 0 0 -0.474 -0.498l-0.078 -0.078 -0.326 -0.321 -0.24 -0.237 -0.074 -0.072a1.84 1.84 0 0 1 -0.334 -0.44l0.105 -0.002c1.554 -0.034 2.895 -0.262 4.361 -0.766l0.14 -0.048 0.151 -0.059c0.136 -0.037 0.136 -0.037 0.298 0.04q0.09 0.061 0.179 0.124l0.206 0.136 0.109 0.072c1.782 1.146 3.951 1.838 6.015 2.25l0.433 0.089a26.4 26.4 0 0 0 2.442 0.37l0.153 0.018c1.648 0.18 3.379 0.15 5.027 -0.018l0.094 -0.01a27.2 27.2 0 0 0 2.784 -0.422l0.156 -0.033c3.473 -0.738 6.914 -2.237 9.339 -4.906z" fill="#005BE0"/>
  <path d="m22.398 15.683 0.147 0.054c0.301 0.119 0.581 0.262 0.86 0.425v-0.432h1.487v7.002c-0.959 0 -0.959 0 -1.199 -0.096 -0.158 -0.163 -0.221 -0.313 -0.288 -0.527l-0.151 0.088c-0.89 0.502 -1.854 0.723 -2.87 0.466a3.6 3.6 0 0 1 -1.583 -0.938l-0.092 -0.083c-0.539 -0.5 -0.907 -1.297 -0.977 -2.028a8.8 8.8 0 0 1 -0.004 -0.449l0.002 -0.16c0.017 -0.854 0.299 -1.63 0.88 -2.268l0.102 -0.118c0.502 -0.542 1.111 -0.838 1.815 -1.034l0.09 -0.026c0.547 -0.118 1.259 -0.073 1.78 0.122" fill="#0168FF"/>
  <path d="M34.695 16.228c0.804 0.632 1.257 1.488 1.394 2.496 0.106 1.058 -0.241 2.044 -0.906 2.86 -0.56 0.65 -1.428 1.14 -2.297 1.206 -1.1 0.028 -2.022 -0.159 -2.862 -0.92l-0.112 -0.098c-0.47 -0.437 -0.742 -0.978 -0.944 -1.58l-0.034 -0.1c-0.283 -0.905 -0.112 -1.877 0.312 -2.701 0.15 -0.275 0.326 -0.517 0.538 -0.748l0.075 -0.089c1.262 -1.392 3.387 -1.363 4.835 -0.326" fill="#0168FF"/>
  <path d="M9.88 13.478h7.434c-0.056 0.783 -0.134 1.122 -0.605 1.693q-0.131 0.162 -0.258 0.326c-0.239 0.308 -0.486 0.61 -0.732 0.912q-0.298 0.368 -0.584 0.746 -0.214 0.275 -0.436 0.544a32.8 32.8 0 0 0 -0.674 0.854 46.4 46.4 0 0 1 -0.96 1.212 32 32 0 0 0 -0.673 0.853q-0.225 0.292 -0.451 0.583l5.324 0.048c0 1.007 0 1.007 -0.144 1.295 -0.196 0.178 -0.366 0.198 -0.624 0.198h-0.183l-0.201 -0.001h-0.211l-0.574 -0.001h-0.6l-1.136 -0.001 -1.293 -0.001 -2.66 -0.002 -0.002 -0.254 -0.001 -0.142c0.002 -0.152 0.024 -0.288 0.062 -0.434l0.034 -0.138c0.111 -0.301 0.331 -0.538 0.533 -0.783q0.302 -0.368 0.597 -0.743 0.323 -0.412 0.655 -0.818a38.4 38.4 0 0 0 0.496 -0.622c0.317 -0.405 0.642 -0.802 0.967 -1.201q0.51 -0.624 1.006 -1.258l0.338 -0.431 0.06 -0.077q0.288 -0.365 0.578 -0.726l-5.084 -0.048z" fill="#0269FF"/>
  <path d="M26.187 13.382h1.582v9.353c-1.151 0 -1.151 0 -1.487 -0.192 -0.13 -0.162 -0.109 -0.356 -0.107 -0.555v-0.111l0.001 -0.37v-0.265l0.001 -0.72 0.001 -0.753 0.002 -1.426 0.002 -1.622 0.005 -3.338" fill="#0269FF"/>
  <path d="M33.79 17.414a2.28 2.28 0 0 1 0.838 1.434c0.065 0.564 -0.11 1.148 -0.433 1.61 -0.359 0.442 -0.858 0.782 -1.437 0.846 -0.708 0.04 -1.229 -0.12 -1.782 -0.574a2.12 2.12 0 0 1 -0.678 -1.422c-0.021 -0.642 0.134 -1.114 0.539 -1.611l0.073 -0.093c0.752 -0.854 2.005 -0.784 2.878 -0.19" fill="#FDFEFF"/>
  <path d="M22.634 17.425c0.395 0.311 0.692 0.782 0.77 1.28 0.043 0.538 0.034 1.008 -0.24 1.487l-0.063 0.118c-0.279 0.47 -0.729 0.769 -1.246 0.922 -0.609 0.152 -1.154 0.026 -1.697 -0.27 -0.492 -0.3 -0.774 -0.743 -0.946 -1.288 -0.124 -0.622 -0.032 -1.218 0.314 -1.747 0.378 -0.5 0.851 -0.819 1.473 -0.934 0.582 -0.078 1.15 0.107 1.632 0.433" fill="#FDFEFF"/>
</svg>