<svg xmlns="http://www.w3.org/2000/svg" viewBox="0 0 60.8 60.8"><defs><style>.cls-1{fill:#1336b6;stroke:#fff;stroke-miterlimit:10;stroke-width:0.75px;}.cls-2{fill:#fff;fill-rule:evenodd;}</style></defs><g id="Layer_2" data-name="Layer 2"><g id="ELEMENTS"><circle class="cls-1" cx="30.4" cy="30.4" r="30.02"/><path class="cls-2" d="M43,35.31c-1.39-.83-3.21-1.76-4.85-1.09-1.26.52-2.07,2.49-2.88,3.5a1.21,1.21,0,0,1-1.57.34,22,22,0,0,1-11-9.4,1.35,1.35,0,0,1,.17-1.84,7.35,7.35,0,0,0,2-3.24A7,7,0,0,0,24,19.75c-.66-1.42-1.4-3.45-2.82-4.26a3.88,3.88,0,0,0-4.21.63,8.52,8.52,0,0,0-3,6.77A9.08,9.08,0,0,0,14.22,25a17.91,17.91,0,0,0,2.06,4.75,37.6,37.6,0,0,0,2.15,3.27,33.34,33.34,0,0,0,9.33,8.66,28,28,0,0,0,5.82,2.77c2.28.75,4.31,1.54,6.77,1.07A8.2,8.2,0,0,0,46.49,41a4,4,0,0,0,.29-2.33C46.43,37.05,44.25,36.09,43,35.31Z"/></g></g></svg>